<?xml version="1.0" encoding="UTF-8"?>
<svg id="Layer_1" xmlns="http://www.w3.org/2000/svg" version="1.1" viewBox="0 0 1972.55 340.5">
  <!-- Generator: Adobe Illustrator 29.8.2, SVG Export Plug-In . SVG Version: 2.1.1 Build 3)  -->
  <defs>
    <style>
      .st0 {
        fill: #fff;
      }

      .st1 {
        fill: #e62825;
      }
    </style>
  </defs>
  <g>
    <polygon class="st0" points="432.9 95.4 392.52 161.82 173.99 161.82 196.42 95.4 432.9 95.4"/>
    <polygon class="st1" points="490.92 0 453.94 60.81 398.59 60.81 435.56 0 490.92 0"/>
    <polygon class="st0" points="415.82 0 378.82 60.81 178.32 60.81 166.64 95.4 144.21 161.82 134.41 190.8 106.92 272.2 37.4 222.74 48.22 190.8 57.99 161.82 80.42 95.4 92.1 60.81 0 60.81 37 0 415.82 0"/>
    <polygon class="st0" points="360.37 190.8 305.97 213.14 279.61 223.97 132.62 284.34 164.19 190.8 360.37 190.8"/>
  </g>
  <g>
    <path class="st0" d="M981.93,89.38c-12.55,57.87-19.54,121.7-35.02,178.5-24.17,88.69-90.49,72.98-166.24,68.98l5.78-37.69c39.51-6.1,109.19,20.36,108.41-41.15-32.71,11.87-97.9,18.84-103.34-28.56-3.69-32.14,6.52-88.63,27.27-114.17,39.28-48.35,109.89-24.5,163.15-25.9h-.01ZM902.81,225.14l18.13-97.85c-53.67-12.97-70.19,16.02-74.68,64.41-4.44,47.83,19.82,37.05,56.56,33.44h-.01Z"/>
    <path class="st0" d="M1085.28,5.06l-16.3,89.75c33.31-12.55,97.3-21.38,105.41,26.49,7.14,42.12-21.12,103.94-23.84,147.58h-54.4l24.7-121.06c.22-30.21-39.35-19.73-58.82-15.06l-29.8,136.11h-50.32L1033.6,5.06h51.68Z"/>
    <polygon class="st0" points="720.79 5.06 712.27 48.22 606.82 48.86 592.95 113.85 685.43 113.85 676.91 157.02 585.06 157.65 563.03 268.88 508.63 268.88 560.31 5.06 720.79 5.06"/>
    <path class="st0" d="M1963.85,195.45h-116.96c-1.47,7.52-.43,35.36,9.52,35.36h93.84l-9.96,35.47c-44.72,3.49-140.33,23.31-147.81-42.26-4.09-35.88,9.46-98.15,39.52-120.97,28.87-21.92,108.85-28.45,131.87,4,18.82,26.52,1.39,59.63-.01,88.41h-.01ZM1920.33,162.81c6.76-32.87-.28-41.5-34.15-38.21-25.69,2.5-27.71,16.27-33.85,38.21h68Z"/>
    <path class="st0" d="M1697.29,268.88l24.28-120.81c-4.4-31.84-37.62-18.04-59.61-17.86l-27.23,138.67h-51.68l35.49-182.09c14.78,1.36,33.51-2.27,47.67-.37,5.21.7,3.67,5.63,5.45,5.72,9.86.48,35.21-8.46,48.74-8.42,29.15.09,53.18,14.82,55.56,45.45,1.53,19.64-12.22,74.37-16.96,96.7-2.97,14.02-5.41,30.97-11.39,43.01h-50.32Z"/>
    <polygon class="st0" points="1430.72 5.06 1388.28 219.77 1391.28 225.37 1487.85 225.37 1479.69 268.88 1324.64 268.88 1379.04 5.06 1430.72 5.06"/>
    <path class="st0" d="M1321.92,89.38l-5.57,37.94c-9.32,2.32-42.12-4.63-45.6,4.73-2.62,7.04-17,83.92-16.31,88.68,2.97,20.37,40.46,9.56,40.32,14.2l-8.81,33.35c-23.29,5.85-75.06,9.27-84.34-19.17-8.57-26.28,21.32-117.28,16.95-121.64l-21.77-.02,5.57-37.94,25.83-2.74,9.66-48.81,51.44-2.99-8.17,54.41h40.8Z"/>
    <polygon class="st0" points="783.35 86.66 747.99 268.88 696.31 268.88 731.67 86.66 783.35 86.66"/>
    <polygon class="st0" points="1585.77 86.66 1546.33 268.88 1496.01 268.88 1535.45 86.66 1585.77 86.66"/>
    <path class="st0" d="M1602.09,2.34c-3.97,16.76-4.46,36.94-12.24,51.68h-50.32l10.88-51.68h51.68,0Z"/>
    <polygon class="st0" points="799.67 2.34 791.51 54.02 739.83 54.02 747.99 2.34 799.67 2.34"/>
  </g>
  <path class="st0" d="M2750.62,1396.13c3.22,0,3.22-5,0-5s-3.22,5,0,5h0Z"/>
</svg>