<?xml version="1.0" encoding="UTF-8"?>
<svg id="Layer_1" xmlns="http://www.w3.org/2000/svg" version="1.1" viewBox="0 0 1972.55 369.3">
  <!-- Generator: Adobe Illustrator 29.8.2, SVG Export Plug-In . SVG Version: 2.1.1 Build 3)  -->
  <defs>
    <style>
      .st0 {
        fill: #fff;
      }

      .st1 {
        isolation: isolate;
      }

      .st2 {
        fill: #e62825;
      }
    </style>
  </defs>
  <g>
    <polygon class="st0" points="432.9 95.4 392.52 161.82 173.99 161.82 196.42 95.4 432.9 95.4"/>
    <polygon class="st2" points="490.92 0 453.94 60.81 398.59 60.81 435.56 0 490.92 0"/>
    <polygon class="st0" points="415.82 0 378.82 60.81 178.32 60.81 166.64 95.4 144.21 161.82 134.41 190.8 106.92 272.2 37.4 222.74 48.22 190.8 57.99 161.82 80.42 95.4 92.1 60.81 0 60.81 37 0 415.82 0"/>
    <polygon class="st0" points="360.37 190.8 305.97 213.14 279.61 223.97 132.62 284.34 164.19 190.8 360.37 190.8"/>
  </g>
  <g>
    <path class="st0" d="M981.93,89.38c-12.55,57.87-19.54,121.7-35.02,178.5-24.17,88.69-90.49,72.98-166.24,68.98l5.78-37.69c39.51-6.1,109.19,20.36,108.41-41.15-32.71,11.87-97.9,18.84-103.34-28.56-3.69-32.14,6.52-88.63,27.27-114.17,39.28-48.35,109.89-24.5,163.15-25.9h-.01ZM902.81,225.14l18.13-97.85c-53.67-12.97-70.19,16.02-74.68,64.41-4.44,47.83,19.82,37.05,56.56,33.44h-.01Z"/>
    <path class="st0" d="M1085.28,5.06l-16.3,89.75c33.31-12.55,97.3-21.38,105.41,26.49,7.14,42.12-21.12,103.94-23.84,147.58h-54.4l24.7-121.06c.22-30.21-39.35-19.73-58.82-15.06l-29.8,136.11h-50.32L1033.6,5.06h51.68Z"/>
    <polygon class="st0" points="720.79 5.06 712.27 48.22 606.82 48.86 592.95 113.85 685.43 113.85 676.91 157.02 585.06 157.65 563.03 268.88 508.63 268.88 560.31 5.06 720.79 5.06"/>
    <path class="st0" d="M1963.85,195.45h-116.96c-1.47,7.52-.43,35.36,9.52,35.36h93.84l-9.96,35.47c-44.72,3.49-140.33,23.31-147.81-42.26-4.09-35.88,9.46-98.15,39.52-120.97,28.87-21.92,108.85-28.45,131.87,4,18.82,26.52,1.39,59.63-.01,88.41h-.01ZM1920.33,162.81c6.76-32.87-.28-41.5-34.15-38.21-25.69,2.5-27.71,16.27-33.85,38.21h68Z"/>
    <path class="st0" d="M1697.29,268.88l24.28-120.81c-4.4-31.84-37.62-18.04-59.61-17.86l-27.23,138.67h-51.68l35.49-182.09c14.78,1.36,33.51-2.27,47.67-.37,5.21.7,3.67,5.63,5.45,5.72,9.86.48,35.21-8.46,48.74-8.42,29.15.09,53.18,14.82,55.56,45.45,1.53,19.64-12.22,74.37-16.96,96.7-2.97,14.02-5.41,30.97-11.39,43.01h-50.32Z"/>
    <polygon class="st0" points="1430.72 5.06 1388.28 219.77 1391.28 225.37 1487.85 225.37 1479.69 268.88 1324.64 268.88 1379.04 5.06 1430.72 5.06"/>
    <path class="st0" d="M1321.92,89.38l-5.57,37.94c-9.32,2.32-42.12-4.63-45.6,4.73-2.62,7.04-17,83.92-16.31,88.68,2.97,20.37,40.46,9.56,40.32,14.2l-8.81,33.35c-23.29,5.85-75.06,9.27-84.34-19.17-8.57-26.28,21.32-117.28,16.95-121.64l-21.77-.02,5.57-37.94,25.83-2.74,9.66-48.81,51.44-2.99-8.17,54.41h40.8Z"/>
    <polygon class="st0" points="783.35 86.66 747.99 268.88 696.31 268.88 731.67 86.66 783.35 86.66"/>
    <polygon class="st0" points="1585.77 86.66 1546.33 268.88 1496.01 268.88 1535.45 86.66 1585.77 86.66"/>
    <path class="st0" d="M1602.09,2.34c-3.97,16.76-4.46,36.94-12.24,51.68h-50.32l10.88-51.68h51.68,0Z"/>
    <polygon class="st0" points="799.67 2.34 791.51 54.02 739.83 54.02 747.99 2.34 799.67 2.34"/>
  </g>
  <g class="st1">
    <g class="st1">
      <path class="st0" d="M976.04,306.94h6.33v45.15h-6.33v-45.15ZM979.3,328.55h14.44c1.37,0,2.57-.32,3.6-.96,1.03-.64,1.84-1.55,2.41-2.73.57-1.18.85-2.54.85-4.07s-.29-2.92-.85-4.1-1.37-2.1-2.41-2.75c-1.04-.65-2.24-.98-3.6-.98h-14.44v-6.02h14.22c2.69,0,5.06.57,7.11,1.72,2.05,1.15,3.64,2.77,4.77,4.86,1.13,2.09,1.69,4.51,1.69,7.27s-.56,5.17-1.69,7.25c-1.13,2.08-2.72,3.69-4.77,4.83-2.05,1.14-4.42,1.71-7.11,1.71h-14.22v-6.02Z"/>
    </g>
    <g class="st1">
      <path class="st0" d="M1013.46,319.86h6.33v32.23h-6.33v-32.23ZM1029.08,325.94c-.85-.35-1.83-.53-2.95-.53-2.01,0-3.57.55-4.67,1.66s-1.66,2.65-1.66,4.61l-.65-6.21c.99-1.92,2.28-3.42,3.85-4.49,1.57-1.07,3.31-1.6,5.22-1.6,1.47,0,2.8.21,3.99.64,1.19.42,2.23,1.05,3.12,1.88l-4.13,5.59c-.56-.68-1.26-1.2-2.11-1.55Z"/>
    </g>
    <g class="st1">
      <path class="st0" d="M1045.54,350.88c-2.11-1.12-3.72-2.76-4.83-4.92-1.11-2.16-1.66-4.78-1.66-7.84v-3.63c0-3.19.53-5.91,1.6-8.17,1.07-2.26,2.61-3.97,4.64-5.16,2.03-1.18,4.47-1.77,7.33-1.77,2.69,0,4.99.67,6.89,2.02,1.91,1.35,3.36,3.29,4.36,5.84s1.51,5.6,1.51,9.16v2.11h-21.74v-5.09h15.71c-.19-2.63-.86-4.67-2.03-6.13-1.17-1.46-2.74-2.19-4.71-2.19-2.4,0-4.26.79-5.57,2.36-1.32,1.57-1.97,3.8-1.97,6.68v4.1c0,2.67.7,4.72,2.11,6.15,1.41,1.43,3.41,2.14,5.99,2.14,1.28,0,2.56-.26,3.82-.78,1.26-.52,2.39-1.24,3.38-2.17l4.16,4.16c-1.59,1.53-3.38,2.72-5.37,3.56-1.99.84-3.99,1.26-5.99,1.26-2.98,0-5.53-.56-7.64-1.68Z"/>
      <path class="st0" d="M1079.56,350.91c-2.08-1.1-3.67-2.69-4.77-4.78-1.1-2.09-1.65-4.62-1.65-7.58v-5.31c0-2.92.55-5.41,1.65-7.48s2.69-3.65,4.77-4.74c2.08-1.09,4.59-1.63,7.53-1.63,1.68,0,3.25.2,4.74.61,1.48.4,2.81.99,3.99,1.75,1.18.77,2.16,1.7,2.95,2.79l-4.57,4.1c-.91-1.04-1.98-1.83-3.2-2.39-1.22-.56-2.5-.84-3.82-.84-2.44,0-4.34.68-5.68,2.05-1.35,1.37-2.02,3.29-2.02,5.78v5.31c0,2.55.67,4.51,2,5.9,1.33,1.39,3.23,2.08,5.7,2.08,1.35,0,2.63-.3,3.85-.9,1.22-.6,2.28-1.45,3.17-2.55l4.57,4.41c-.81,1.08-1.8,1.99-2.98,2.75s-2.51,1.33-3.99,1.72c-1.48.39-3.05.59-4.71.59-2.94,0-5.45-.55-7.53-1.65Z"/>
      <path class="st0" d="M1105.75,306.94h6.33v6.33h-6.33v-6.33ZM1105.75,319.86h6.33v32.23h-6.33v-32.23Z"/>
      <path class="st0" d="M1127.75,352c-1.67-.37-3.22-.93-4.67-1.68-1.45-.75-2.79-1.68-4.01-2.79l3.76-4.63c1.74,1.33,3.47,2.32,5.19,2.98,1.72.66,3.42.99,5.09.99,2.5,0,4.38-.39,5.64-1.17,1.25-.78,1.88-1.94,1.88-3.49,0-1.04-.34-1.81-1.02-2.33-.68-.52-1.53-.86-2.55-1.04-1.01-.18-2.44-.34-4.29-.48-.17,0-.34,0-.53-.02-.19,0-.36-.03-.53-.05-.08,0-.17,0-.25-.02-.08-.01-.17-.02-.25-.02-2.09-.17-3.86-.47-5.31-.92-1.45-.45-2.66-1.28-3.62-2.5s-1.44-2.97-1.44-5.25.47-4.17,1.4-5.68c.93-1.51,2.32-2.64,4.16-3.4,1.84-.75,4.15-1.13,6.92-1.13,1.68,0,3.28.16,4.8.47s2.98.77,4.36,1.38c1.39.61,2.72,1.38,4.01,2.31l-3.82,4.63c-1.62-1.04-3.2-1.81-4.77-2.33-1.56-.52-3.09-.78-4.58-.78-2.15,0-3.77.37-4.84,1.1-1.08.74-1.61,1.84-1.61,3.31,0,.87.3,1.52.92,1.96.61.43,1.38.72,2.31.87.93.15,2.26.27,3.97.37.12.02.25.03.39.03s.27.01.42.03h.19c.06,0,.12.01.19.03,2.26.15,4.18.45,5.76.9,1.58.46,2.91,1.36,3.99,2.7,1.08,1.35,1.61,3.29,1.61,5.84,0,2.32-.5,4.24-1.49,5.76-.99,1.52-2.49,2.67-4.49,3.43-2,.77-4.51,1.15-7.53,1.15-1.9,0-3.69-.19-5.36-.56Z"/>
      <path class="st0" d="M1154.69,306.94h6.33v6.33h-6.33v-6.33ZM1154.69,319.86h6.33v32.23h-6.33v-32.23Z"/>
      <path class="st0" d="M1175.84,350.91c-1.99-1.1-3.5-2.7-4.55-4.8-1.05-2.1-1.57-4.63-1.57-7.59v-5.25c0-2.92.52-5.42,1.57-7.5,1.04-2.08,2.56-3.67,4.55-4.75,1.99-1.09,4.38-1.63,7.17-1.63s5.19.54,7.17,1.63,3.5,2.67,4.55,4.75c1.04,2.08,1.57,4.58,1.57,7.5v5.34c0,2.94-.52,5.45-1.57,7.53-1.05,2.08-2.56,3.67-4.55,4.77s-4.38,1.65-7.17,1.65-5.19-.55-7.17-1.65ZM1188.16,344.45c1.21-1.39,1.82-3.33,1.82-5.84v-5.34c0-2.5-.61-4.44-1.82-5.81-1.21-1.37-2.92-2.05-5.14-2.05s-3.93.68-5.14,2.05c-1.21,1.37-1.82,3.3-1.82,5.81v5.34c0,2.5.61,4.45,1.82,5.84,1.21,1.39,2.92,2.08,5.14,2.08s3.93-.69,5.14-2.08Z"/>
      <path class="st0" d="M1205.31,319.86h6.33v32.23h-6.33v-32.23ZM1224.88,332.56c0-2.28-.59-4.04-1.77-5.28-1.18-1.24-2.84-1.86-4.97-1.86s-3.67.55-4.8,1.65c-1.13,1.1-1.69,2.64-1.69,4.63l-.65-6.21c.99-1.95,2.29-3.45,3.9-4.5,1.6-1.06,3.38-1.58,5.33-1.58,3.5,0,6.21,1.14,8.12,3.43,1.92,2.29,2.87,5.52,2.87,9.71v19.56h-6.33v-19.53Z"/>
      <path class="st0" d="M1258.54,306.94h6.3v45.15h-6.3v-45.15ZM1262.27,346.22h12.24c3.21,0,5.55-.61,7.02-1.83,1.47-1.22,2.21-2.94,2.21-5.16v-.09c0-1.53-.26-2.85-.79-3.94-.53-1.1-1.36-1.94-2.5-2.53-1.14-.59-2.6-.88-4.38-.88h-13.79v-5.71h13.79c2.34,0,4.1-.55,5.29-1.65,1.19-1.1,1.79-2.72,1.79-4.88s-.66-3.94-1.99-5.06-3.31-1.68-5.96-1.68h-12.92v-5.87h14.07c2.92,0,5.36.5,7.33,1.49,1.97.99,3.44,2.4,4.41,4.22.97,1.82,1.46,4,1.46,6.52,0,1.55-.3,3.01-.9,4.36-.6,1.36-1.52,2.52-2.75,3.48-1.23.96-2.76,1.61-4.58,1.94,1.82.27,3.4.92,4.72,1.94,1.32,1.03,2.34,2.3,3.04,3.84s1.06,3.19,1.06,4.97v.09c0,2.44-.54,4.6-1.61,6.46-1.08,1.86-2.62,3.3-4.63,4.32-2.01,1.01-4.35,1.52-7.02,1.52h-14.6v-5.87Z"/>
      <path class="st0" d="M1304.53,350.88c-2.11-1.12-3.72-2.76-4.83-4.92-1.11-2.16-1.66-4.78-1.66-7.84v-3.63c0-3.19.53-5.91,1.6-8.17,1.07-2.26,2.61-3.97,4.64-5.16,2.03-1.18,4.47-1.77,7.33-1.77,2.69,0,4.99.67,6.89,2.02,1.91,1.35,3.36,3.29,4.36,5.84s1.51,5.6,1.51,9.16v2.11h-21.74v-5.09h15.71c-.19-2.63-.86-4.67-2.03-6.13-1.17-1.46-2.74-2.19-4.71-2.19-2.4,0-4.26.79-5.57,2.36-1.32,1.57-1.97,3.8-1.97,6.68v4.1c0,2.67.7,4.72,2.11,6.15,1.41,1.43,3.41,2.14,5.99,2.14,1.28,0,2.56-.26,3.82-.78,1.26-.52,2.39-1.24,3.38-2.17l4.16,4.16c-1.59,1.53-3.38,2.72-5.37,3.56-1.99.84-3.99,1.26-5.99,1.26-2.98,0-5.53-.56-7.64-1.68Z"/>
      <path class="st0" d="M1330.59,319.86h14.53v5.71h-14.53v-5.71ZM1335.73,350.09c-1.21-1.44-1.82-3.57-1.82-6.38v-33.23h6.34v33.29c0,.79.16,1.39.47,1.82.31.42.77.64,1.37.64h3.04v6.02h-3.66c-2.61,0-4.52-.72-5.73-2.16Z"/>
      <path class="st0" d="M1351.33,319.86h14.53v5.71h-14.53v-5.71ZM1356.47,350.09c-1.21-1.44-1.82-3.57-1.82-6.38v-33.23h6.34v33.29c0,.79.16,1.39.47,1.82.31.42.77.64,1.37.64h3.04v6.02h-3.66c-2.61,0-4.52-.72-5.73-2.16Z"/>
      <path class="st0" d="M1374.56,306.94h6.33v6.33h-6.33v-6.33ZM1374.56,319.86h6.33v32.23h-6.33v-32.23Z"/>
      <path class="st0" d="M1390.52,319.86h6.33v32.23h-6.33v-32.23ZM1410.09,332.56c0-2.28-.59-4.04-1.77-5.28-1.18-1.24-2.84-1.86-4.97-1.86s-3.67.55-4.8,1.65c-1.13,1.1-1.69,2.64-1.69,4.63l-.65-6.21c.99-1.95,2.29-3.45,3.9-4.5,1.6-1.06,3.38-1.58,5.33-1.58,3.5,0,6.21,1.14,8.12,3.43,1.92,2.29,2.87,5.52,2.87,9.71v19.56h-6.33v-19.53Z"/>
      <path class="st0" d="M1430.23,351.11c-1.67-1.02-2.93-2.52-3.8-4.49-.87-1.97-1.3-4.33-1.3-7.08v-7.11c0-2.77.42-5.14,1.27-7.11.85-1.97,2.08-3.46,3.71-4.49,1.62-1.02,3.58-1.54,5.85-1.54,1.9,0,3.65.5,5.23,1.49,1.58.99,2.86,2.39,3.84,4.19l-.65,6.58c0-1.37-.25-2.54-.75-3.51-.5-.97-1.22-1.71-2.16-2.22-.94-.51-2.09-.76-3.43-.76-2.09,0-3.71.65-4.86,1.96-1.15,1.3-1.72,3.14-1.72,5.5v7.02c0,2.34.57,4.15,1.72,5.42,1.15,1.27,2.77,1.91,4.86,1.91,1.34,0,2.49-.26,3.43-.79.94-.53,1.66-1.29,2.16-2.28.5-.99.75-2.18.75-3.57l.43,6.8c-.64,1.59-1.69,2.93-3.15,4.01-1.46,1.08-3.26,1.61-5.39,1.61-2.36,0-4.37-.51-6.04-1.54ZM1430.35,363.84c-1.92-.9-3.4-2.17-4.46-3.8l4.29-3.88c.83,1.14,1.82,2.02,2.97,2.64s2.35.93,3.62.93c2.42,0,4.3-.67,5.62-2,1.32-1.34,1.99-3.23,1.99-5.67v-32.2h6.33v31.27c0,2.96-.54,5.5-1.63,7.61-1.09,2.11-2.67,3.72-4.74,4.81s-4.57,1.65-7.48,1.65c-2.42,0-4.59-.45-6.51-1.35Z"/>
      <path class="st0" d="M1459.25,345.44h6.65v6.65h-6.65v-6.65Z"/>
    </g>
    <g class="st1">
      <path class="st0" d="M1486.22,306.94h31.86v6.02h-31.86v-6.02ZM1498.98,310.63h6.33v41.46h-6.33v-41.46Z"/>
    </g>
    <g class="st1">
      <path class="st0" d="M1519.95,319.86h6.33v32.23h-6.33v-32.23ZM1535.57,325.94c-.85-.35-1.83-.53-2.95-.53-2.01,0-3.57.55-4.67,1.66s-1.66,2.65-1.66,4.61l-.65-6.21c.99-1.92,2.28-3.42,3.85-4.49,1.57-1.07,3.31-1.6,5.22-1.6,1.47,0,2.8.21,3.99.64,1.19.42,2.23,1.05,3.12,1.88l-4.13,5.59c-.56-.68-1.26-1.2-2.11-1.55Z"/>
      <path class="st0" d="M1553.43,339.45c0,2.26.57,4,1.72,5.23,1.15,1.23,2.77,1.85,4.86,1.85s3.67-.55,4.81-1.65c1.14-1.1,1.71-2.66,1.71-4.69l.43,6.74c-.66,1.59-1.74,2.93-3.23,4.01-1.49,1.08-3.32,1.62-5.5,1.62-3.56,0-6.31-1.14-8.24-3.43-1.94-2.29-2.9-5.51-2.9-9.67v-19.59h6.34v19.59ZM1566.53,319.86h6.3v32.23h-6.3v-32.23Z"/>
      <path class="st0" d="M1588.5,352c-1.67-.37-3.22-.93-4.67-1.68-1.45-.75-2.79-1.68-4.01-2.79l3.76-4.63c1.74,1.33,3.47,2.32,5.19,2.98,1.72.66,3.42.99,5.09.99,2.5,0,4.38-.39,5.64-1.17,1.25-.78,1.88-1.94,1.88-3.49,0-1.04-.34-1.81-1.02-2.33s-1.53-.86-2.55-1.04c-1.01-.18-2.44-.34-4.29-.48-.17,0-.34,0-.53-.02-.19,0-.36-.03-.53-.05-.08,0-.17,0-.25-.02-.08-.01-.17-.02-.25-.02-2.09-.17-3.86-.47-5.31-.92s-2.66-1.28-3.62-2.5c-.96-1.22-1.45-2.97-1.45-5.25s.47-4.17,1.4-5.68c.93-1.51,2.32-2.64,4.16-3.4,1.84-.75,4.15-1.13,6.92-1.13,1.68,0,3.28.16,4.8.47,1.52.31,2.97.77,4.36,1.38s2.72,1.38,4.01,2.31l-3.82,4.63c-1.62-1.04-3.2-1.81-4.77-2.33-1.56-.52-3.09-.78-4.58-.78-2.15,0-3.77.37-4.84,1.1-1.08.74-1.62,1.84-1.62,3.31,0,.87.3,1.52.92,1.96.61.43,1.38.72,2.31.87.93.15,2.26.27,3.98.37.12.02.25.03.39.03s.27.01.42.03h.19c.06,0,.12.01.19.03,2.26.15,4.18.45,5.76.9,1.58.46,2.91,1.36,3.99,2.7,1.08,1.35,1.61,3.29,1.61,5.84,0,2.32-.5,4.24-1.49,5.76-.99,1.52-2.49,2.67-4.49,3.43-2,.77-4.51,1.15-7.53,1.15-1.91,0-3.69-.19-5.36-.56Z"/>
      <path class="st0" d="M1612.96,319.86h14.53v5.71h-14.53v-5.71ZM1618.1,350.09c-1.21-1.44-1.82-3.57-1.82-6.38v-33.23h6.33v33.29c0,.79.16,1.39.47,1.82.31.42.77.64,1.37.64h3.04v6.02h-3.67c-2.61,0-4.52-.72-5.73-2.16Z"/>
      <path class="st0" d="M1641.75,350.88c-2.11-1.12-3.72-2.76-4.83-4.92-1.11-2.16-1.66-4.78-1.66-7.84v-3.63c0-3.19.53-5.91,1.6-8.17,1.07-2.26,2.61-3.97,4.64-5.16,2.03-1.18,4.47-1.77,7.33-1.77,2.69,0,4.99.67,6.89,2.02s3.36,3.29,4.36,5.84c1,2.55,1.51,5.6,1.51,9.16v2.11h-21.74v-5.09h15.71c-.19-2.63-.86-4.67-2.03-6.13-1.17-1.46-2.74-2.19-4.71-2.19-2.4,0-4.26.79-5.57,2.36-1.32,1.57-1.97,3.8-1.97,6.68v4.1c0,2.67.7,4.72,2.11,6.15,1.41,1.43,3.41,2.14,5.99,2.14,1.28,0,2.56-.26,3.82-.78,1.26-.52,2.39-1.24,3.38-2.17l4.16,4.16c-1.59,1.53-3.39,2.72-5.37,3.56-1.99.84-3.99,1.26-5.99,1.26-2.98,0-5.53-.56-7.64-1.68Z"/>
      <path class="st0" d="M1674.46,351.11c-1.67-1.02-2.93-2.52-3.8-4.49-.87-1.97-1.3-4.33-1.3-7.08v-7.11c0-2.77.42-5.14,1.27-7.11.85-1.97,2.08-3.46,3.71-4.49,1.62-1.02,3.58-1.54,5.85-1.54,1.9,0,3.65.5,5.23,1.49,1.58.99,2.86,2.39,3.84,4.19l-.65,6.58c0-1.37-.25-2.54-.75-3.51-.5-.97-1.22-1.71-2.16-2.22-.94-.51-2.09-.76-3.43-.76-2.09,0-3.71.65-4.86,1.96-1.15,1.3-1.72,3.14-1.72,5.5v7.02c0,2.34.58,4.15,1.72,5.42,1.15,1.27,2.77,1.91,4.86,1.91,1.35,0,2.49-.26,3.43-.79.94-.53,1.66-1.29,2.16-2.28.5-.99.75-2.18.75-3.57l.43,6.8c-.64,1.59-1.69,2.93-3.15,4.01s-3.26,1.61-5.39,1.61c-2.36,0-4.37-.51-6.04-1.54ZM1688.61,306.94h6.33v45.15h-6.33v-45.15Z"/>
    </g>
    <g class="st1">
      <path class="st0" d="M1722.26,306.91h6.33v45.18h-6.33v-45.18ZM1725.02,326.97h15.4c1.2,0,2.27-.29,3.2-.87.93-.58,1.65-1.4,2.16-2.47.51-1.07.76-2.29.76-3.68s-.25-2.61-.76-3.68c-.51-1.07-1.22-1.89-2.14-2.47-.92-.58-1.99-.87-3.21-.87h-15.4v-6.02h15.15c2.61,0,4.9.54,6.88,1.62s3.51,2.6,4.6,4.58c1.09,1.98,1.63,4.26,1.63,6.85s-.55,4.87-1.65,6.85c-1.1,1.98-2.63,3.5-4.61,4.58-1.98,1.08-4.26,1.62-6.85,1.62h-15.15v-6.02ZM1737.32,331.59l6.3-1.43,11.55,21.92h-7.52l-10.34-20.5Z"/>
    </g>
    <g class="st1">
      <path class="st0" d="M1767.42,350.88c-2.11-1.12-3.72-2.76-4.83-4.92-1.11-2.16-1.66-4.78-1.66-7.84v-3.63c0-3.19.53-5.91,1.6-8.17,1.07-2.26,2.61-3.97,4.64-5.16,2.03-1.18,4.47-1.77,7.33-1.77,2.69,0,4.99.67,6.89,2.02,1.91,1.35,3.36,3.29,4.36,5.84s1.51,5.6,1.51,9.16v2.11h-21.74v-5.09h15.71c-.19-2.63-.86-4.67-2.03-6.13-1.17-1.46-2.74-2.19-4.71-2.19-2.4,0-4.26.79-5.57,2.36-1.32,1.57-1.97,3.8-1.97,6.68v4.1c0,2.67.7,4.72,2.11,6.15,1.41,1.43,3.41,2.14,5.99,2.14,1.28,0,2.56-.26,3.82-.78,1.26-.52,2.39-1.24,3.38-2.17l4.16,4.16c-1.59,1.53-3.38,2.72-5.37,3.56-1.99.84-3.99,1.26-5.99,1.26-2.98,0-5.53-.56-7.64-1.68Z"/>
      <path class="st0" d="M1802,352c-1.67-.37-3.22-.93-4.67-1.68-1.45-.75-2.79-1.68-4.01-2.79l3.76-4.63c1.74,1.33,3.47,2.32,5.19,2.98,1.72.66,3.42.99,5.09.99,2.5,0,4.38-.39,5.64-1.17,1.25-.78,1.88-1.94,1.88-3.49,0-1.04-.34-1.81-1.02-2.33-.68-.52-1.53-.86-2.55-1.04-1.01-.18-2.44-.34-4.29-.48-.17,0-.34,0-.53-.02-.19,0-.36-.03-.53-.05-.08,0-.17,0-.25-.02-.08-.01-.17-.02-.25-.02-2.09-.17-3.86-.47-5.31-.92-1.45-.45-2.66-1.28-3.62-2.5s-1.44-2.97-1.44-5.25.47-4.17,1.4-5.68c.93-1.51,2.32-2.64,4.16-3.4,1.84-.75,4.15-1.13,6.92-1.13,1.68,0,3.28.16,4.8.47s2.98.77,4.36,1.38c1.39.61,2.72,1.38,4.01,2.31l-3.82,4.63c-1.62-1.04-3.2-1.81-4.77-2.33-1.56-.52-3.09-.78-4.58-.78-2.15,0-3.77.37-4.84,1.1-1.08.74-1.61,1.84-1.61,3.31,0,.87.3,1.52.92,1.96.61.43,1.38.72,2.31.87.93.15,2.26.27,3.97.37.12.02.25.03.39.03s.27.01.42.03h.19c.06,0,.12.01.19.03,2.26.15,4.18.45,5.76.9,1.58.46,2.91,1.36,3.99,2.7,1.08,1.35,1.61,3.29,1.61,5.84,0,2.32-.5,4.24-1.49,5.76-.99,1.52-2.49,2.67-4.49,3.43-2,.77-4.51,1.15-7.53,1.15-1.9,0-3.69-.19-5.36-.56Z"/>
      <path class="st0" d="M1835.27,339.45c0,2.26.58,4,1.72,5.23,1.15,1.23,2.77,1.85,4.86,1.85s3.67-.55,4.81-1.65c1.14-1.1,1.71-2.66,1.71-4.69l.43,6.74c-.66,1.59-1.74,2.93-3.23,4.01-1.49,1.08-3.32,1.62-5.5,1.62-3.56,0-6.31-1.14-8.24-3.43-1.94-2.29-2.9-5.51-2.9-9.67v-19.59h6.33v19.59ZM1848.38,319.86h6.3v32.23h-6.3v-32.23Z"/>
      <path class="st0" d="M1870.64,343.77c0,.79.17,1.39.51,1.82.34.42.82.64,1.44.64h2.98v6.02h-3.73c-2.4,0-4.26-.75-5.57-2.24-1.32-1.49-1.97-3.59-1.97-6.3v-36.77h6.33v36.83Z"/>
      <path class="st0" d="M1880.24,319.86h14.53v5.71h-14.53v-5.71ZM1885.38,350.09c-1.21-1.44-1.82-3.57-1.82-6.38v-33.23h6.34v33.29c0,.79.16,1.39.47,1.82.31.42.77.64,1.37.64h3.04v6.02h-3.66c-2.61,0-4.52-.72-5.73-2.16Z"/>
      <path class="st0" d="M1909.51,352c-1.67-.37-3.22-.93-4.67-1.68-1.45-.75-2.78-1.68-4.01-2.79l3.76-4.63c1.74,1.33,3.47,2.32,5.19,2.98,1.72.66,3.42.99,5.09.99,2.5,0,4.38-.39,5.64-1.17,1.25-.78,1.88-1.94,1.88-3.49,0-1.04-.34-1.81-1.02-2.33s-1.53-.86-2.55-1.04c-1.01-.18-2.44-.34-4.29-.48-.17,0-.34,0-.53-.02-.19,0-.36-.03-.53-.05-.08,0-.17,0-.25-.02s-.17-.02-.25-.02c-2.09-.17-3.86-.47-5.31-.92s-2.66-1.28-3.62-2.5c-.96-1.22-1.44-2.97-1.44-5.25s.47-4.17,1.4-5.68c.93-1.51,2.32-2.64,4.16-3.4,1.84-.75,4.15-1.13,6.92-1.13,1.68,0,3.28.16,4.8.47,1.52.31,2.98.77,4.36,1.38,1.39.61,2.72,1.38,4.01,2.31l-3.82,4.63c-1.61-1.04-3.2-1.81-4.77-2.33-1.56-.52-3.09-.78-4.58-.78-2.15,0-3.77.37-4.84,1.1-1.08.74-1.62,1.84-1.62,3.31,0,.87.31,1.52.92,1.96s1.38.72,2.31.87c.93.15,2.26.27,3.98.37.12.02.25.03.39.03s.27.01.42.03h.19c.06,0,.12.01.19.03,2.26.15,4.18.45,5.76.9s2.91,1.36,3.99,2.7c1.08,1.35,1.62,3.29,1.62,5.84,0,2.32-.5,4.24-1.49,5.76-.99,1.52-2.49,2.67-4.49,3.43s-4.51,1.15-7.53,1.15c-1.91,0-3.69-.19-5.36-.56Z"/>
      <path class="st0" d="M1935.36,345.44h6.65v6.65h-6.65v-6.65Z"/>
    </g>
  </g>
</svg>